<?xml version="1.0" encoding="iso-8859-1"?>
<!-- Uploaded to: SVG Repo, www.svgrepo.com, Generator: SVG Repo Mixer Tools -->
<svg fill="#000000" height="800px" width="800px" version="1.1" id="Layer_1" xmlns="http://www.w3.org/2000/svg" xmlns:xlink="http://www.w3.org/1999/xlink" 
	 viewBox="0 0 512 512" xml:space="preserve">
<g>
	<g>
		<path d="M456.347,77.913c-36.027,0-39.585-0.31-50.087,1.198V61.217c0-9.22-7.475-16.696-16.696-16.696
			c-9.22,0-16.696,7.475-16.696,16.696v27.987c-39.45,18.79-66.783,59.05-66.783,105.578v16.696h-33.391V97.302
			c19.433-6.892,33.391-25.45,33.391-47.215C306.086,22.469,283.617,0,255.999,0c-27.618,0-50.087,22.469-50.087,50.087
			c0,21.766,13.959,40.323,33.391,47.215v114.176c-4.899,0-164.517,0-183.652,0c-27.618,0-50.087,22.469-50.087,50.087v33.391
			c0,9.22,7.475,16.696,16.696,16.696s16.696-7.475,16.696-16.696v-33.391c0-9.206,7.49-16.696,16.696-16.696h16.696
			c0,4.029,0,131.085,0,136.426c-19.435,6.891-33.391,25.46-33.391,47.226v33.391c0,9.22,7.475,16.696,16.696,16.696
			c9.22,0,16.696-7.475,16.696-16.696v-33.391c0-9.206,7.49-16.696,16.696-16.696h33.391c21.768,0,40.336-13.956,47.226-33.391
			h69.643v100.174h-83.478c-9.22,0-16.696,7.475-16.696,16.696S146.605,512,155.825,512h200.348c9.22,0,16.696-7.475,16.696-16.696
			s-7.475-16.696-16.696-16.696h-83.478V378.435h69.643c6.89,19.435,25.459,33.391,47.226,33.391h33.391
			c9.206,0,16.696,7.49,16.696,16.696v33.391c0,9.22,7.475,16.696,16.696,16.696s16.696-7.475,16.696-16.696v-33.391
			c0-21.766-13.959-40.323-33.391-47.215V193.319c0-8.399,6.834-15.232,15.233-15.232c24.685,0,45.949-16.867,50.562-40.106
			C511.677,106.589,487.647,77.913,456.347,77.913z M255.999,33.391c9.206,0,16.696,7.49,16.696,16.696s-7.49,16.696-16.696,16.696
			c-9.206,0-16.696-7.49-16.696-16.696S246.792,33.391,255.999,33.391z M205.912,244.87h100.174v16.696
			c0,9.206-7.49,16.696-16.696,16.696h-66.783c-9.206,0-16.696-7.49-16.696-16.696V244.87z M472.693,131.478
			c-1.496,7.535-9.153,13.217-17.81,13.217c-26.811,0-48.623,21.812-48.623,48.623v185.116h-16.696
			c-9.206,0-16.696-7.49-16.696-16.696v-33.391c0-9.22-7.475-16.696-16.696-16.696c-9.22,0-16.696,7.475-16.696,16.696v16.696
			H172.521v-16.696c0-9.22-7.475-16.696-16.696-16.696s-16.696,7.475-16.696,16.696v33.391c0,9.206-7.49,16.696-16.696,16.696
			h-16.696c0-4.933,0-128.787,0-133.565h66.783v16.696c0,27.618,22.469,50.087,50.087,50.087h66.783
			c27.618,0,50.087-22.469,50.087-50.087c0-7.091,0-59.906,0-66.783c0-46.03,37.448-83.478,83.478-83.478h33.391
			C466.478,111.304,474.853,120.606,472.693,131.478z"/>
	</g>
</g>
</svg>